<svg width="184" height="177" viewBox="0 0 184 177" fill="none" xmlns="http://www.w3.org/2000/svg">
<path d="M70.2844 38.1283C64.2342 31.5407 57.317 27.9759 49.5327 27.4339" stroke="#14A5A5" stroke-width="5" stroke-linecap="round"/>
<path d="M83.742 34.2693C85.3819 25.4767 89.359 18.788 95.6732 14.2033" stroke="#14A5A5" stroke-width="5" stroke-linecap="round"/>
<path d="M84.4554 62.1528C92.4187 59.8694 97.0232 51.5627 94.7397 43.5993C92.4563 35.636 84.1496 31.0315 76.1863 33.315C68.2229 35.5984 63.6184 43.9051 65.9019 51.8685C68.1853 59.8318 76.492 64.4363 84.4554 62.1528Z" fill="#14A5A5"/>
<path d="M39.4805 86.0831C55.7634 91.3737 70.9002 89.7014 73.2895 82.3478C75.6788 74.9943 64.4159 64.7441 48.133 59.4535C31.8501 54.1629 16.7133 55.8352 14.324 63.1888C11.9347 70.5423 23.1977 80.7925 39.4805 86.0831Z" fill="#14A5A5"/>
<path d="M135.277 58.6138C146.282 45.4985 150.402 30.8374 144.479 25.8674C138.556 20.8974 124.833 27.5004 113.828 40.6157C102.823 53.731 98.7033 68.3921 104.626 73.3621C110.549 78.3322 124.272 71.7291 135.277 58.6138Z" fill="#14A5A5"/>
<path d="M87.4874 72.7267C116.325 64.4575 131.041 83.1246 133.118 101.254C136.85 125.151 127.802 144.39 111.192 155.395C91.2744 154.865 73.4065 143.343 63.9075 121.1C56.0622 104.624 58.6495 80.9958 87.4874 72.7267Z" fill="#0F7075"/>
<path d="M53.4611 113.693L138.052 89.4365Z" fill="black"/>
<path d="M53.4611 113.693L138.052 89.4365" stroke="white" stroke-width="9"/>
<path d="M66.3951 137.032L139.451 116.083Z" fill="black"/>
<path d="M66.3951 137.032L139.451 116.083" stroke="white" stroke-width="9"/>
</svg>
